<svg width="113" height="122" viewBox="0 0 113 122" fill="none" xmlns="http://www.w3.org/2000/svg">
<g clip-path="url(#clip0_112_1078)">
<rect x="16.5" width="80" height="80" rx="8" fill="#2743FD"/>
<path d="M38.7905 21.52C41.1005 21.52 43.1172 21.795 44.8405 22.345C46.6005 22.895 48.0672 23.7017 49.2405 24.765C50.4138 25.8283 51.2938 27.0933 51.8805 28.56C52.5038 29.99 52.8155 31.6217 52.8155 33.455C52.8155 35.215 52.5222 37.0117 51.9355 38.845C51.3855 40.6783 50.4872 42.3833 49.2405 43.96C47.9938 45.5 46.3438 46.765 44.2905 47.755C42.2738 48.7083 39.7988 49.185 36.8655 49.185H31.4205L29.8255 62H21.5755L26.5255 21.52H38.7905ZM37.4705 41.43C38.7905 41.43 39.8905 41.1917 40.7705 40.715C41.6505 40.2383 42.3655 39.6333 42.9155 38.9C43.4655 38.1667 43.8505 37.415 44.0705 36.645C44.3272 35.875 44.4555 35.1967 44.4555 34.61C44.4555 33.9867 44.3272 33.2533 44.0705 32.41C43.8138 31.5667 43.3005 30.8333 42.5305 30.21C41.7605 29.55 40.5872 29.22 39.0105 29.22H33.8405L32.3555 41.43H37.4705Z" fill="black"/>
<path d="M76.7286 25.153L68.1348 41.9593C67.0406 44.0991 64.8399 45.4455 62.4365 45.4455H61.4C57.8654 45.4455 55 42.5802 55 39.0455V36.8241C55 35.0947 55.6999 33.4388 56.9404 32.2337L70.4164 19.1416C71.17 18.4095 72.1793 18 73.2299 18C75.4599 18 77.2676 19.8077 77.2676 22.0377V22.9152C77.2676 23.6933 77.0829 24.4602 76.7286 25.153Z" fill="white"/>
<path d="M86 41.3901V42.7415C86 44.4702 85.3007 46.1254 84.0612 47.3304L69.9662 61.0333C69.3286 61.6532 68.4743 62 67.585 62C65.6984 62 64.169 60.4706 64.169 58.584V57.4039C64.169 56.7017 64.3299 56.0089 64.6393 55.3786L72.8906 38.5699C73.9663 36.3786 76.1947 34.9901 78.6357 34.9901H79.6C83.1346 34.9901 86 37.8555 86 41.3901Z" fill="white"/>
</g>
<path d="M12.2483 87.448C13.5923 87.448 14.7657 87.608 15.7683 87.928C16.7923 88.248 17.6457 88.7173 18.3283 89.336C19.011 89.9547 19.523 90.6907 19.8643 91.544C20.227 92.376 20.4083 93.3253 20.4083 94.392C20.4083 95.416 20.2377 96.4613 19.8963 97.528C19.5763 98.5947 19.0537 99.5867 18.3283 100.504C17.603 101.4 16.643 102.136 15.4483 102.712C14.275 103.267 12.835 103.544 11.1283 103.544H7.96034L7.03234 111H2.23234L5.11234 87.448H12.2483ZM11.4803 99.032C12.2483 99.032 12.8883 98.8933 13.4003 98.616C13.9123 98.3387 14.3283 97.9867 14.6483 97.56C14.9683 97.1333 15.1923 96.696 15.3203 96.248C15.4697 95.8 15.5443 95.4053 15.5443 95.064C15.5443 94.7013 15.4697 94.2747 15.3203 93.784C15.171 93.2933 14.8723 92.8667 14.4243 92.504C13.9763 92.12 13.2937 91.928 12.3763 91.928H9.36834L8.50434 99.032H11.4803ZM26.8456 111.32C25.9283 111.341 25.0323 111.085 24.1576 110.552C23.2829 110.019 22.5576 109.24 21.9816 108.216C21.4269 107.192 21.1496 105.955 21.1496 104.504C21.1496 103.459 21.3416 102.456 21.7256 101.496C22.1096 100.515 22.6536 99.64 23.3576 98.872C24.0616 98.0827 24.8936 97.464 25.8536 97.016C26.8136 96.5467 27.8696 96.312 29.0216 96.312C29.9603 96.312 30.7176 96.4187 31.2936 96.632C31.8909 96.8453 32.3709 97.1227 32.7336 97.464C33.0963 97.784 33.4056 98.136 33.6616 98.52L33.3736 99.192L34.0776 97.016H38.2376L36.5416 111H32.0616L32.4136 107.96L32.6696 108.92C32.6269 108.92 32.4776 109.048 32.2216 109.304C31.9656 109.539 31.5923 109.816 31.1016 110.136C30.6323 110.456 30.0349 110.744 29.3096 111C28.6056 111.235 27.7843 111.341 26.8456 111.32ZM29.3736 107.736C29.8003 107.736 30.2056 107.661 30.5896 107.512C30.9949 107.341 31.3789 107.107 31.7416 106.808C32.1043 106.488 32.4243 106.093 32.7016 105.624L33.1176 102.2C33.0109 101.731 32.8083 101.336 32.5096 101.016C32.2109 100.675 31.8376 100.419 31.3896 100.248C30.9416 100.056 30.4296 99.96 29.8536 99.96C29.1283 99.96 28.5096 100.088 27.9976 100.344C27.4856 100.6 27.0589 100.931 26.7176 101.336C26.3976 101.741 26.1629 102.179 26.0136 102.648C25.8643 103.096 25.7896 103.533 25.7896 103.96C25.7896 104.728 25.9389 105.4 26.2376 105.976C26.5363 106.531 26.9523 106.968 27.4856 107.288C28.0403 107.587 28.6696 107.736 29.3736 107.736ZM41.8588 117.72L53.7308 97.016H57.7628L46.1788 117.72H41.8588ZM46.4348 111.064L41.3148 97.016H46.3388L50.1468 108.824L46.4348 111.064Z" fill="white"/>
<path d="M64.9961 111.56C64.6628 111.413 64.3494 111.227 64.0561 111C63.7761 110.773 63.5161 110.533 63.2761 110.28L63.1361 110.4L63.0961 110.54H63.0361L62.8961 110.4L62.8161 110.52L62.7761 110.82L62.4761 110.92L62.5161 110.72C62.4628 110.787 62.4028 110.847 62.3361 110.9C62.2694 110.953 62.1961 111.013 62.1161 111.08L61.7561 111.1L61.7761 110.92L61.4561 111.22V111.2L61.5361 111.08L61.3161 111.1L61.2761 111.18L61.2161 111.1L61.1761 111.2L60.7961 111.28L60.7161 111.22L60.3961 111.42L60.3761 111.34L60.4961 111.32V111.28L60.2761 111.26L60.1561 111.38H60.0361C59.9828 111.38 59.9294 111.373 59.8761 111.36C59.8228 111.36 59.7694 111.353 59.7161 111.34L59.6361 111.26L59.5561 111.24L59.2961 111.32L59.1561 111.22L59.0361 111.28H58.9761C58.8961 111.28 58.8294 111.227 58.7761 111.12C58.7228 111.013 58.6894 110.933 58.6761 110.88L58.5561 111.1C58.4361 111.073 58.3094 111 58.1761 110.88C58.0561 110.747 57.9561 110.633 57.8761 110.54C57.8361 110.233 57.7494 109.94 57.6161 109.66C57.4961 109.38 57.4361 109.087 57.4361 108.78C57.4361 108.393 57.5361 108.033 57.7361 107.7C57.9494 107.367 58.2161 107.06 58.5361 106.78C58.8561 106.5 59.1828 106.24 59.5161 106C59.8628 105.76 60.1694 105.533 60.4361 105.32C60.3161 104.973 60.2561 104.627 60.2561 104.28C60.2561 103.84 60.3494 103.413 60.5361 103C60.7361 102.587 61.0028 102.227 61.3361 101.92C61.6828 101.613 62.0694 101.407 62.4961 101.3L62.6361 101.32C62.7028 101.32 62.7694 101.313 62.8361 101.3C62.9028 101.287 62.9694 101.28 63.0361 101.28C63.1561 101.28 63.2694 101.32 63.3761 101.4C63.4961 101.48 63.5828 101.567 63.6361 101.66L63.5561 101.74L63.3561 101.58L63.2761 101.6L63.1361 101.52H62.9161C62.3428 101.52 61.9161 101.733 61.6361 102.16C61.3694 102.587 61.2161 103.053 61.1761 103.56L61.2161 103.76L61.1361 103.96L61.0361 103.94L60.9961 104L61.0561 104.14L61.1161 104.08L61.2561 104.84L61.5361 104.66L61.7561 104.78L61.7961 104.5C61.9828 104.38 62.2228 104.213 62.5161 104C62.8228 103.787 63.1228 103.553 63.4161 103.3C63.7228 103.047 63.9761 102.787 64.1761 102.52C64.3894 102.253 64.4961 102 64.4961 101.76L64.3961 101.56H64.2761C64.2361 101.493 64.1828 101.44 64.1161 101.4C64.0628 101.36 64.0028 101.32 63.9361 101.28L64.1961 101.2L64.6161 101.26C64.8694 101.473 65.1161 101.667 65.3561 101.84C65.5961 102 65.7161 102.273 65.7161 102.66C65.7161 102.98 65.5494 103.307 65.2161 103.64C64.8961 103.973 64.4961 104.3 64.0161 104.62C63.5361 104.927 63.0694 105.2 62.6161 105.44C62.1628 105.667 61.8028 105.84 61.5361 105.96L61.5161 106.04C61.5161 106.147 61.5628 106.327 61.6561 106.58C61.7494 106.82 61.8494 107.067 61.9561 107.32C62.0628 107.56 62.1361 107.74 62.1761 107.86L62.2961 107.96L62.3361 108.18C62.4694 108.273 62.5894 108.433 62.6961 108.66C62.8161 108.873 62.9361 109.093 63.0561 109.32C63.1894 109.547 63.3294 109.733 63.4761 109.88C63.6494 109.867 63.8094 109.813 63.9561 109.72C64.1028 109.613 64.2494 109.533 64.3961 109.48L64.4361 109.5C64.5428 109.42 64.6428 109.327 64.7361 109.22C64.8294 109.1 64.9428 109.027 65.0761 109L65.1761 108.9L65.0961 108.86C64.9894 108.993 64.8494 109.1 64.6761 109.18C64.5028 109.26 64.3561 109.36 64.2361 109.48L64.1561 109.44C64.3961 109.187 64.6828 108.893 65.0161 108.56C65.3494 108.227 65.6361 107.873 65.8761 107.5C66.1294 107.113 66.2561 106.733 66.2561 106.36C66.2561 106.24 66.2428 106.113 66.2161 105.98C66.1894 105.833 66.1094 105.733 65.9761 105.68L65.8361 105.7L65.6961 105.58L65.8961 105.48C66.2428 105.533 66.4694 105.673 66.5761 105.9C66.6961 106.113 66.7694 106.36 66.7961 106.64C66.8361 106.907 66.8894 107.16 66.9561 107.4L66.7961 107.62L66.8561 107.66L66.7161 107.78C66.6894 107.927 66.5961 108.067 66.4361 108.2C66.4361 108.267 66.3694 108.367 66.2361 108.5C66.1028 108.633 65.9428 108.773 65.7561 108.92C65.5694 109.053 65.3894 109.173 65.2161 109.28C65.0561 109.387 64.9361 109.46 64.8561 109.5L64.8161 109.46C64.6161 109.54 64.4961 109.687 64.4561 109.9L64.3561 109.92L64.2961 109.84C64.2428 109.893 64.1828 109.947 64.1161 110C64.0628 110.053 64.0094 110.113 63.9561 110.18L63.8161 110.06L63.7361 110.08V110.18C63.9361 110.367 64.1561 110.52 64.3961 110.64C64.6494 110.747 64.9161 110.8 65.1961 110.8C65.6361 110.8 66.0428 110.693 66.4161 110.48C66.7894 110.267 67.1361 110.02 67.4561 109.74L67.5161 109.84C67.3294 110.093 67.1561 110.313 66.9961 110.5C66.8361 110.673 66.6094 110.847 66.3161 111.02L66.2961 111.1L66.1961 111.18L66.1561 111.12L66.0361 111.2L66.0761 111.3C65.9561 111.407 65.8161 111.493 65.6561 111.56L65.5361 111.52L64.9961 111.56ZM62.1561 104.74C62.2628 104.673 62.3494 104.593 62.4161 104.5C62.4828 104.393 62.5628 104.3 62.6561 104.22H62.6361L62.2561 104.44L62.2761 104.5L62.2361 104.54L62.1361 104.48L62.0161 104.6L62.1561 104.74ZM61.3761 104.98L61.5561 104.92L61.5761 104.84H61.5361L61.3761 104.98ZM59.9961 106.06C60.1961 105.967 60.3161 105.807 60.3561 105.58L60.1361 105.74L59.9561 106L59.9961 106.06ZM61.0161 106.26L61.1561 106.08L61.1361 106C61.1094 106.027 61.0828 106.067 61.0561 106.12C61.0428 106.173 61.0294 106.22 61.0161 106.26ZM59.8361 110.96C59.8894 110.933 59.9361 110.907 59.9761 110.88C60.0294 110.853 60.0828 110.833 60.1361 110.82L60.1961 110.72L60.2161 110.74L60.3961 110.72L60.4561 110.78C60.5361 110.74 60.6161 110.707 60.6961 110.68C60.7761 110.653 60.8628 110.64 60.9561 110.64L61.0361 110.68L61.2161 110.6L61.2761 110.66L61.5761 110.54L61.7961 110.62C61.9028 110.58 62.0028 110.533 62.0961 110.48C62.1894 110.427 62.2894 110.393 62.3961 110.38L62.5161 110.4C62.5961 110.267 62.7228 110.2 62.8961 110.2L63.0961 110.04L62.9161 109.86L62.8961 109.78C62.6828 109.473 62.4761 109.167 62.2761 108.86C62.0761 108.54 61.8628 108.233 61.6361 107.94V107.86C61.5828 107.753 61.5228 107.653 61.4561 107.56C61.3894 107.453 61.3094 107.373 61.2161 107.32V107.16C61.2161 107 61.1694 106.86 61.0761 106.74C60.9828 106.607 60.9094 106.473 60.8561 106.34C60.8561 106.46 60.7894 106.52 60.6561 106.52C60.6028 106.52 60.4828 106.587 60.2961 106.72C60.1228 106.853 59.9494 106.993 59.7761 107.14C59.6028 107.287 59.4828 107.387 59.4161 107.44L59.3561 107.54C59.1694 107.7 58.9628 107.893 58.7361 108.12C58.5228 108.333 58.3361 108.567 58.1761 108.82C58.0294 109.073 57.9561 109.333 57.9561 109.6C57.9561 109.84 58.0494 110.04 58.2361 110.2C58.4228 110.347 58.6094 110.467 58.7961 110.56H58.8961L59.1361 110.7L59.3761 110.64L59.6161 110.74L59.8361 110.96ZM57.7761 108.22V108.04L57.8361 107.92L57.7161 107.98L57.6161 108.14L57.7761 108.22ZM59.7761 110.8L59.8961 110.68L59.9561 110.74L59.7761 110.8ZM64.6561 111L64.6761 110.96L64.5961 110.92V110.96L64.6561 111ZM65.9761 111.12C66.0961 111.12 66.1828 111.08 66.2361 111C66.1561 111.067 66.0694 111.107 65.9761 111.12ZM88.7147 93.56C87.8827 93.0053 87.0187 92.5467 86.1227 92.184C85.248 91.8 84.4053 91.5867 83.5947 91.544C83.0827 91.5227 82.624 91.5547 82.2187 91.64C81.8133 91.704 81.4507 91.832 81.1307 92.024C80.832 92.1947 80.5867 92.4293 80.3947 92.728C80.224 93.0267 80.1173 93.3787 80.0747 93.784C80.0107 94.3387 80.16 94.8507 80.5227 95.32C80.9067 95.768 81.4187 96.184 82.0587 96.568C82.72 96.952 83.4133 97.304 84.1387 97.624C85.0133 98.008 85.8453 98.488 86.6347 99.064C87.424 99.64 88.0427 100.397 88.4907 101.336C88.9387 102.253 89.0667 103.459 88.8747 104.952C88.768 105.848 88.4907 106.691 88.0427 107.48C87.5947 108.269 86.9867 108.963 86.2187 109.56C85.472 110.136 84.576 110.573 83.5307 110.872C82.4853 111.171 81.3013 111.277 79.9787 111.192C79.0827 111.128 78.1867 110.979 77.2907 110.744C76.3947 110.509 75.52 110.189 74.6667 109.784C73.8133 109.357 73.0027 108.824 72.2347 108.184L74.7307 104.696C75.2213 105.123 75.776 105.517 76.3947 105.88C77.0133 106.221 77.6427 106.499 78.2827 106.712C78.9227 106.925 79.52 107.053 80.0747 107.096C80.6293 107.117 81.1947 107.075 81.7707 106.968C82.3467 106.84 82.848 106.595 83.2747 106.232C83.7013 105.869 83.9573 105.347 84.0427 104.664C84.1067 104.195 84 103.757 83.7227 103.352C83.4453 102.947 83.072 102.573 82.6027 102.232C82.1333 101.891 81.6 101.581 81.0027 101.304C80.32 100.984 79.616 100.621 78.8907 100.216C78.1653 99.8107 77.4933 99.3307 76.8747 98.776C76.2773 98.2213 75.8187 97.5387 75.4987 96.728C75.1787 95.9173 75.0933 94.9573 75.2427 93.848C75.4133 92.4827 75.8613 91.32 76.5867 90.36C77.312 89.3787 78.2613 88.6427 79.4347 88.152C80.608 87.64 81.9307 87.3947 83.4027 87.416C84.6613 87.48 85.7387 87.6507 86.6347 87.928C87.552 88.184 88.352 88.504 89.0347 88.888C89.7173 89.272 90.3467 89.688 90.9227 90.136L88.7147 93.56ZM93.6719 97.016H98.1519L96.4239 111H91.9439L93.6719 97.016ZM93.9599 92.088C93.9599 91.4053 94.1946 90.8293 94.6639 90.36C95.1332 89.8907 95.7519 89.656 96.5199 89.656C97.0532 89.656 97.5866 89.816 98.1199 90.136C98.6532 90.4347 98.9199 90.968 98.9199 91.736C98.9199 92.3973 98.6852 92.9733 98.2159 93.464C97.7466 93.9333 97.1279 94.168 96.3599 94.168C95.8266 94.168 95.2932 94.0187 94.7599 93.72C94.2266 93.4 93.9599 92.856 93.9599 92.088ZM106.798 97.016L106.67 100.12C107.182 99.288 107.79 98.5947 108.494 98.04C109.219 97.464 109.944 97.0373 110.67 96.76C111.416 96.4613 112.046 96.312 112.558 96.312L111.79 100.792C110.766 100.664 109.848 100.835 109.038 101.304C108.227 101.773 107.576 102.392 107.086 103.16C106.595 103.928 106.296 104.717 106.19 105.528L105.518 111H101.07L102.766 97.016H106.798Z" fill="black"/>
<defs>
<clipPath id="clip0_112_1078">
<rect x="16.5" width="80" height="80" rx="8" fill="white"/>
</clipPath>
</defs>
</svg>
