<svg width="41" height="36" viewBox="0 0 41 36" fill="none" xmlns="http://www.w3.org/2000/svg">
<g id="Vector" filter="url(#filter0_d_397_784)">
<path d="M11.623 15.6457C11.4182 15.7158 11.2323 15.8275 11.0783 15.9731C10.9243 16.1187 10.8061 16.2945 10.732 16.488C10.612 16.7715 10.5826 17.0821 10.6475 17.3812C10.7124 17.6803 10.8687 17.9548 11.0971 18.1707C11.3255 18.3866 11.6159 18.5344 11.9323 18.5958C12.2487 18.6571 12.5771 18.6294 12.877 18.5159C13.077 18.4369 13.2611 18.3261 13.4215 18.1883C13.5672 18.0367 13.6844 17.8626 13.768 17.6736C13.8604 17.4884 13.9056 17.2854 13.9 17.0808C13.8939 16.6678 13.723 16.2722 13.4215 15.9733C13.1895 15.7568 12.8948 15.6102 12.5747 15.5519C12.2547 15.4936 11.9235 15.5262 11.623 15.6457ZM33.304 9.40615L31.06 3.11981C30.7177 2.20451 30.0828 1.41252 29.2432 0.853544C28.4036 0.29457 27.4009 -0.00370769 26.374 3.47911e-05H14.626C13.5991 -0.00370769 12.5964 0.29457 11.7568 0.853544C10.9172 1.41252 10.2823 2.20451 9.94 3.11981L7.696 9.45295C6.64054 9.71424 5.70596 10.2979 5.03757 11.1131C4.36918 11.9284 4.00442 12.9296 4 13.961V20.2006C4.00287 21.1661 4.32155 22.1071 4.91235 22.8946C5.50315 23.6821 6.33714 24.2776 7.3 24.5994V26.4401C7.3 26.8538 7.47384 27.2506 7.78327 27.5431C8.09271 27.8357 8.51239 28 8.95 28C9.38761 28 9.80729 27.8357 10.1167 27.5431C10.4262 27.2506 10.6 26.8538 10.6 26.4401V24.8802H30.4V26.4401C30.4 26.8538 30.5738 27.2506 30.8833 27.5431C31.1927 27.8357 31.6124 28 32.05 28C32.4876 28 32.9073 27.8357 33.2167 27.5431C33.5262 27.2506 33.7 26.8538 33.7 26.4401V24.5994C34.6629 24.2776 35.4969 23.6821 36.0877 22.8946C36.6785 22.1071 36.9971 21.1661 37 20.2006V13.961C36.9956 12.9296 36.6308 11.9284 35.9624 11.1131C35.294 10.2979 34.3595 9.71424 33.304 9.45295V9.40615ZM13.0585 4.10254C13.1692 3.79271 13.3801 3.52361 13.6614 3.33327C13.9426 3.14292 14.2801 3.04097 14.626 3.04181H26.374C26.7338 3.02406 27.0899 3.11813 27.3878 3.30967C27.6858 3.5012 27.9092 3.77967 28.024 4.10254L29.7565 9.28136H11.2435L13.0585 4.10254ZM33.7 20.2006C33.7 20.6143 33.5262 21.011 33.2167 21.3036C32.9073 21.5961 32.4876 21.7605 32.05 21.7605H8.95C8.51239 21.7605 8.09271 21.5961 7.78327 21.3036C7.47384 21.011 7.3 20.6143 7.3 20.2006V13.961C7.3 13.5473 7.47384 13.1506 7.78327 12.858C8.09271 12.5655 8.51239 12.4011 8.95 12.4011H32.05C32.4876 12.4011 32.9073 12.5655 33.2167 12.858C33.5262 13.1506 33.7 13.5473 33.7 13.961V20.2006ZM28.123 15.6457C27.9182 15.7158 27.7323 15.8275 27.5783 15.9731C27.4243 16.1187 27.3061 16.2945 27.232 16.488C27.112 16.7715 27.0826 17.0821 27.1475 17.3812C27.2124 17.6803 27.3687 17.9548 27.5971 18.1707C27.8255 18.3866 28.1159 18.5344 28.4323 18.5958C28.7487 18.6571 29.0771 18.6294 29.377 18.5159C29.5818 18.4458 29.7677 18.3341 29.9217 18.1885C30.0757 18.0429 30.1939 17.8671 30.268 17.6736C30.3604 17.4884 30.4056 17.2854 30.4 17.0808C30.3939 16.6678 30.223 16.2722 29.9215 15.9733C29.6895 15.7568 29.3948 15.6102 29.0747 15.5519C28.7547 15.4936 28.4235 15.5262 28.123 15.6457ZM22.15 15.5209H18.85C18.4124 15.5209 17.9927 15.6853 17.6833 15.9778C17.3738 16.2703 17.2 16.6671 17.2 17.0808C17.2 17.4945 17.3738 17.8913 17.6833 18.1838C17.9927 18.4763 18.4124 18.6407 18.85 18.6407H22.15C22.5876 18.6407 23.0073 18.4763 23.3167 18.1838C23.6262 17.8913 23.8 17.4945 23.8 17.0808C23.8 16.6671 23.6262 16.2703 23.3167 15.9778C23.0073 15.6853 22.5876 15.5209 22.15 15.5209Z" fill="#1A31C9" fill-opacity="0.99" shape-rendering="crispEdges"/>
</g>
<defs>
<filter id="filter0_d_397_784" x="0" y="0" width="41" height="36" filterUnits="userSpaceOnUse" color-interpolation-filters="sRGB">
<feFlood flood-opacity="0" result="BackgroundImageFix"/>
<feColorMatrix in="SourceAlpha" type="matrix" values="0 0 0 0 0 0 0 0 0 0 0 0 0 0 0 0 0 0 127 0" result="hardAlpha"/>
<feOffset dy="4"/>
<feGaussianBlur stdDeviation="2"/>
<feComposite in2="hardAlpha" operator="out"/>
<feColorMatrix type="matrix" values="0 0 0 0 0 0 0 0 0 0 0 0 0 0 0 0 0 0 0.35 0"/>
<feBlend mode="normal" in2="BackgroundImageFix" result="effect1_dropShadow_397_784"/>
<feBlend mode="normal" in="SourceGraphic" in2="effect1_dropShadow_397_784" result="shape"/>
</filter>
</defs>
</svg>
