<svg width="37" height="35" viewBox="0 0 37 35" fill="none" xmlns="http://www.w3.org/2000/svg">
<g id="uil-check-square">
<path id="Vector" d="M15.7405 21.5104C15.8838 21.6471 16.0543 21.7556 16.2422 21.8296C16.43 21.9037 16.6315 21.9418 16.835 21.9418C17.0386 21.9418 17.2401 21.9037 17.4279 21.8296C17.6158 21.7556 17.7863 21.6471 17.9296 21.5104L24.2196 15.5604C24.5099 15.2858 24.673 14.9134 24.673 14.525C24.673 14.1366 24.5099 13.7642 24.2196 13.4896C23.9293 13.215 23.5356 13.0607 23.125 13.0607C22.7145 13.0607 22.3208 13.215 22.0305 13.4896L16.835 18.4187L14.9696 16.6396C14.6793 16.365 14.2856 16.2107 13.875 16.2107C13.4645 16.2107 13.0708 16.365 12.7805 16.6396C12.4902 16.9142 12.3271 17.2866 12.3271 17.675C12.3271 18.0634 12.4902 18.4358 12.7805 18.7104L15.7405 21.5104ZM32.375 2.91667H4.62504C4.21617 2.91667 3.82404 3.07031 3.53492 3.3438C3.2458 3.61729 3.08337 3.98823 3.08337 4.375V30.625C3.08337 31.0118 3.2458 31.3827 3.53492 31.6562C3.82404 31.9297 4.21617 32.0833 4.62504 32.0833H32.375C32.7839 32.0833 33.176 31.9297 33.4652 31.6562C33.7543 31.3827 33.9167 31.0118 33.9167 30.625V4.375C33.9167 3.98823 33.7543 3.61729 33.4652 3.3438C33.176 3.07031 32.7839 2.91667 32.375 2.91667ZM30.8334 29.1667H6.16671V5.83333H30.8334V29.1667Z" fill="#1AAA23"/>
</g>
</svg>
