<svg width="39" height="35" viewBox="0 0 39 35" fill="none" xmlns="http://www.w3.org/2000/svg">
<path id="Vector" d="M37.5545 14.4362L20.7202 0.435313C20.3788 0.154736 19.94 0 19.4856 0C19.0313 0 18.5925 0.154736 18.2511 0.435313L1.41681 14.4362C1.13069 14.673 0.928926 14.9861 0.83864 15.3334C0.748355 15.6807 0.773878 16.0455 0.911777 16.3788C1.04742 16.7077 1.28607 16.9906 1.59647 17.1905C1.90686 17.3904 2.27453 17.4979 2.65132 17.4989H4.5218V33.2499C4.5218 33.714 4.71887 34.1592 5.06966 34.4874C5.42044 34.8156 5.8962 35 6.39228 35H32.579C33.0751 35 33.5508 34.8156 33.9016 34.4874C34.2524 34.1592 34.4495 33.714 34.4495 33.2499V17.4989H36.32C36.6968 17.4979 37.0644 17.3904 37.3748 17.1905C37.6852 16.9906 37.9239 16.7077 38.0595 16.3788C38.1974 16.0455 38.2229 15.6807 38.1326 15.3334C38.0424 14.9861 37.8406 14.673 37.5545 14.4362ZM21.3561 31.4998H17.6152V26.2494C17.6152 25.7853 17.8122 25.3401 18.163 25.0119C18.5138 24.6837 18.9896 24.4993 19.4856 24.4993C19.9817 24.4993 20.4575 24.6837 20.8083 25.0119C21.1591 25.3401 21.3561 25.7853 21.3561 26.2494V31.4998ZM30.7085 31.4998H25.0971V26.2494C25.0971 24.857 24.5059 23.5215 23.4535 22.5369C22.4012 21.5523 20.9739 20.9991 19.4856 20.9991C17.9974 20.9991 16.5701 21.5523 15.5178 22.5369C14.4654 23.5215 13.8742 24.857 13.8742 26.2494V31.4998H8.26276V17.4989H30.7085V31.4998ZM7.57069 13.9987L19.4856 4.09304L31.4006 13.9987H7.57069Z" fill="#EBEDF4"/>
</svg>
