<svg width="89" height="89" viewBox="0 0 89 89" fill="none" xmlns="http://www.w3.org/2000/svg">
<g id="icons8-checkmark 1">
<path id="Vector" d="M73.6883 22.5198C72.7381 22.5481 71.8363 22.9452 71.1738 23.627L33.5283 61.2726L21.4845 49.2289C21.1475 48.8778 20.7439 48.5976 20.2972 48.4045C19.8505 48.2115 19.3698 48.1095 18.8832 48.1045C18.3966 48.0996 17.914 48.1918 17.4634 48.3757C17.0129 48.5596 16.6037 48.8316 16.2596 49.1757C15.9155 49.5198 15.6435 49.9291 15.4596 50.3796C15.2757 50.8301 15.1835 51.3128 15.1884 51.7993C15.1934 52.2859 15.2954 52.7666 15.4884 53.2133C15.6815 53.66 15.9617 54.0636 16.3127 54.4007L30.9424 69.0303C31.6283 69.7159 32.5584 70.1011 33.5283 70.1011C34.4981 70.1011 35.4282 69.7159 36.1142 69.0303L76.3456 28.7988C76.8741 28.2851 77.2351 27.6237 77.3813 26.9013C77.5274 26.1788 77.4519 25.4291 77.1647 24.7504C76.8774 24.0716 76.3918 23.4955 75.7715 23.0974C75.1511 22.6994 74.425 22.4981 73.6883 22.5198Z" fill="white"/>
</g>
</svg>
