<svg width="81" height="80" viewBox="0 0 81 80" fill="none" xmlns="http://www.w3.org/2000/svg">
<g clip-path="url(#clip0_112_1079)">
<rect x="0.5" width="80" height="80" rx="8" fill="#2743FD"/>
<path d="M22.7905 21.52C25.1005 21.52 27.1172 21.795 28.8405 22.345C30.6005 22.895 32.0672 23.7017 33.2405 24.765C34.4138 25.8283 35.2938 27.0933 35.8805 28.56C36.5038 29.99 36.8155 31.6217 36.8155 33.455C36.8155 35.215 36.5222 37.0117 35.9355 38.845C35.3855 40.6783 34.4872 42.3833 33.2405 43.96C31.9938 45.5 30.3438 46.765 28.2905 47.755C26.2738 48.7083 23.7988 49.185 20.8655 49.185H15.4205L13.8255 62H5.57549L10.5255 21.52H22.7905ZM21.4705 41.43C22.7905 41.43 23.8905 41.1917 24.7705 40.715C25.6505 40.2383 26.3655 39.6333 26.9155 38.9C27.4655 38.1667 27.8505 37.415 28.0705 36.645C28.3272 35.875 28.4555 35.1967 28.4555 34.61C28.4555 33.9867 28.3272 33.2533 28.0705 32.41C27.8138 31.5667 27.3005 30.8333 26.5305 30.21C25.7605 29.55 24.5872 29.22 23.0105 29.22H17.8405L16.3555 41.43H21.4705Z" fill="black"/>
<path d="M60.7286 25.153L52.1348 41.9593C51.0406 44.0991 48.8399 45.4455 46.4365 45.4455H45.4C41.8654 45.4455 39 42.5802 39 39.0455V36.8241C39 35.0947 39.6999 33.4388 40.9404 32.2337L54.4164 19.1416C55.17 18.4095 56.1793 18 57.2299 18C59.4599 18 61.2676 19.8077 61.2676 22.0377V22.9152C61.2676 23.6933 61.0829 24.4602 60.7286 25.153Z" fill="white"/>
<path d="M70 41.3901V42.7415C70 44.4702 69.3007 46.1254 68.0612 47.3304L53.9662 61.0333C53.3286 61.6532 52.4743 62 51.585 62C49.6984 62 48.169 60.4706 48.169 58.584V57.4039C48.169 56.7017 48.3299 56.0089 48.6393 55.3786L56.8906 38.5699C57.9663 36.3786 60.1947 34.9901 62.6357 34.9901H63.6C67.1346 34.9901 70 37.8555 70 41.3901Z" fill="white"/>
</g>
<defs>
<clipPath id="clip0_112_1079">
<rect x="0.5" width="80" height="80" rx="8" fill="white"/>
</clipPath>
</defs>
</svg>
