<svg width="30" height="35" viewBox="0 0 30 35" fill="none" xmlns="http://www.w3.org/2000/svg">
<path id="Vector" d="M26.1125 19.6131V14.0344C26.1099 11.5488 25.1864 9.14422 23.5057 7.24661C21.8249 5.349 19.4953 4.08075 16.9295 3.66648V1.7543C16.9295 1.28903 16.736 0.842817 16.3916 0.513822C16.0471 0.184827 15.58 0 15.0929 0C14.6058 0 14.1386 0.184827 13.7942 0.513822C13.4498 0.842817 13.2563 1.28903 13.2563 1.7543V3.66648C10.6904 4.08075 8.36084 5.349 6.68009 7.24661C4.99934 9.14422 4.07588 11.5488 4.07324 14.0344V19.6131C3.00149 19.975 2.07317 20.6447 1.41556 21.5304C0.75794 22.4161 0.403219 23.4744 0.400024 24.5602V28.0688C0.400024 28.534 0.593524 28.9802 0.937954 29.3092C1.28239 29.6382 1.74953 29.8231 2.23663 29.8231H8.00358C8.42652 31.3096 9.34981 32.6219 10.631 33.5575C11.9122 34.4931 13.4801 35 15.0929 35C16.7056 35 18.2735 34.4931 19.5547 33.5575C20.8359 32.6219 21.7592 31.3096 22.1822 29.8231H27.9491C28.4362 29.8231 28.9034 29.6382 29.2478 29.3092C29.5922 28.9802 29.7857 28.534 29.7857 28.0688V24.5602C29.7825 23.4744 29.4278 22.4161 28.7702 21.5304C28.1126 20.6447 27.1843 19.975 26.1125 19.6131ZM7.74645 14.0344C7.74645 12.1733 8.52045 10.3885 9.89817 9.07248C11.2759 7.7565 13.1445 7.01719 15.0929 7.01719C17.0413 7.01719 18.9099 7.7565 20.2876 9.07248C21.6653 10.3885 22.4393 12.1733 22.4393 14.0344V19.2973H7.74645V14.0344ZM15.0929 31.5774C14.4519 31.5737 13.823 31.4098 13.2688 31.102C12.7146 30.7943 12.2544 30.3533 11.9339 29.8231H18.2518C17.9313 30.3533 17.4711 30.7943 16.9169 31.102C16.3628 31.4098 15.7339 31.5737 15.0929 31.5774ZM26.1125 26.3145H4.07324V24.5602C4.07324 24.0949 4.26674 23.6487 4.61117 23.3197C4.9556 22.9907 5.42275 22.8059 5.90985 22.8059H24.2759C24.763 22.8059 25.2302 22.9907 25.5746 23.3197C25.919 23.6487 26.1125 24.0949 26.1125 24.5602V26.3145Z" fill="#EBEDF4"/>
</svg>
