<svg width="223" height="233" viewBox="0 0 223 233" fill="none" xmlns="http://www.w3.org/2000/svg">
<g id="OTP 1" clip-path="url(#clip0_111_975)">
<g id="Page-1">
<g id="OTP">
<g id="undraw_confirmed_81ex-(1)">
<path id="Oval" fill-rule="evenodd" clip-rule="evenodd" d="M111.5 212.581C161.848 212.581 202.663 171.766 202.663 121.418C202.663 71.0703 161.848 30.2555 111.5 30.2555C61.1524 30.2555 20.3375 71.0703 20.3375 121.418C20.3375 171.766 61.1524 212.581 111.5 212.581Z" stroke="#3AD29F" stroke-width="0.613889" stroke-dasharray="3.68 3.68"/>
<path id="Oval_2" fill-rule="evenodd" clip-rule="evenodd" d="M111.5 231.918C172.527 231.918 222 182.445 222 121.418C222 60.3905 172.527 10.918 111.5 10.918C50.4725 10.918 1 60.3905 1 121.418C1 182.445 50.4725 231.918 111.5 231.918Z" stroke="#3AD29F" stroke-width="0.613889" stroke-dasharray="3.68 3.68"/>
<path id="Path" d="M185.455 156.621C185.458 143.756 175.67 133.002 162.862 131.798C150.054 130.593 138.432 139.334 136.037 151.974L59.4269 149.896L60.2679 163.058C60.2679 163.058 49.3438 188.264 106.758 194.98V220.457H173.131V178.098C180.758 173.632 185.448 165.46 185.455 156.621Z" fill="url(#paint0_linear_111_975)"/>
<path id="Path_2" d="M62.8984 163.611C62.8984 163.611 52.4378 187.749 107.421 194.188V218.597H170.986V153.957L62.082 151.004L62.8984 163.611Z" fill="#BE7C5E"/>
<path id="Path_3" d="M94.6671 62.8806C91.2168 68.3252 84.017 69.9613 78.5526 66.5424L44.4234 44.0526C38.9788 40.6023 37.3427 33.4025 40.7616 27.938C44.2114 22.5009 51.4019 20.8657 56.8639 24.2762L90.993 46.766C96.442 50.2124 98.0837 57.4129 94.6671 62.8806Z" fill="url(#paint1_linear_111_975)"/>
<path id="Path_4" d="M92.7764 61.6528C89.5692 66.7137 82.877 68.2346 77.7975 65.0569L46.0625 44.1355C41.0016 40.9283 39.4808 34.2361 42.6585 29.1566C45.8657 24.0957 52.5579 22.5749 57.6374 25.7526L89.3662 46.6617C94.4368 49.8673 95.9613 56.5692 92.7764 61.6528Z" fill="#BE7C5E"/>
<path id="Oval_3" d="M158.92 181.315C172.103 181.315 182.791 170.628 182.791 157.444C182.791 144.26 172.103 133.573 158.92 133.573C145.736 133.573 135.049 144.26 135.049 157.444C135.049 170.628 145.736 181.315 158.92 181.315Z" fill="#BE7C5E"/>
<path id="Rectangle" d="M154.623 0H63.1777C61.1011 0 59.4177 1.68344 59.4177 3.76007V174.869C59.4177 176.946 61.1011 178.629 63.1777 178.629H154.623C156.699 178.629 158.383 176.946 158.383 174.869V3.76007C158.383 1.68344 156.699 0 154.623 0Z" fill="url(#paint2_linear_111_975)"/>
<path id="Rectangle_2" d="M152.855 2.41565H64.9396C62.6273 2.41565 60.7529 4.29011 60.7529 6.60237V172.033C60.7529 174.345 62.6273 176.22 64.9396 176.22H152.855C155.167 176.22 157.041 174.345 157.041 172.033V6.60237C157.041 4.29011 155.167 2.41565 152.855 2.41565Z" fill="white"/>
<path id="Path_5" d="M133.087 6.77429C132.512 10.5829 129.244 13.4022 125.392 13.4135H92.1379C88.2873 13.4007 85.0213 10.5817 84.4459 6.77429H66.8273C65.8572 6.77429 64.9266 7.15827 64.2403 7.84394C63.5541 8.52961 63.1685 9.45992 63.1685 10.43V168.199C63.1685 169.17 63.5525 170.1 64.2382 170.786C64.9238 171.473 65.8541 171.858 66.8242 171.858H150.97C151.94 171.858 152.871 171.474 153.557 170.789C154.243 170.103 154.629 169.173 154.629 168.203V10.4331C154.629 9.46299 154.245 8.53235 153.559 7.84611C152.873 7.15987 151.943 6.77429 150.973 6.77429H133.087Z" fill="#2F56F8"/>
<path id="Rectangle_3" d="M119.149 8.85229H98.9183C98.5793 8.85229 98.3044 9.12714 98.3044 9.46618V9.57975C98.3044 9.91879 98.5793 10.1936 98.9183 10.1936H119.149C119.488 10.1936 119.763 9.91879 119.763 9.57975V9.46618C119.763 9.12714 119.488 8.85229 119.149 8.85229Z" fill="#DBDBDB"/>
<path id="Oval_4" d="M124.321 10.3894C124.873 10.3894 125.321 9.94169 125.321 9.3894C125.321 8.83712 124.873 8.3894 124.321 8.3894C123.769 8.3894 123.321 8.83712 123.321 9.3894C123.321 9.94169 123.769 10.3894 124.321 10.3894Z" fill="#DBDBDB"/>
<path id="Path_6" d="M174.35 161.655C167.422 163.258 162.668 158.739 161.065 151.815L145.147 92.7065C143.563 85.7549 147.89 78.8289 154.831 77.2027C161.783 75.6189 168.709 79.9451 170.335 86.8868L183.325 147.521C184.927 154.448 181.275 160.053 174.35 161.655Z" fill="url(#paint3_linear_111_975)"/>
<path id="Rectangle_4" d="M168.549 88.3337C167.198 82.4883 161.365 78.8446 155.52 80.1952C149.674 81.5458 146.031 87.3792 147.381 93.2245L162.019 156.576C163.369 162.421 169.203 166.065 175.048 164.714C180.893 163.363 184.537 157.53 183.186 151.685L168.549 88.3337Z" fill="#BE7C5E"/>
<path id="Rectangle_5" d="M182.69 210.61H91.834V231.789H182.69V210.61Z" fill="url(#paint4_linear_111_975)"/>
<path id="Rectangle_6" d="M180.234 213.065H94.2896V229.64H180.234V213.065Z" fill="#4D8AF0"/>
<path id="Path_7" d="M81.4194 126.289C78.011 131.669 70.8973 133.286 65.4982 129.908L42.6094 115.098C37.2294 111.69 35.6125 104.576 38.9905 99.1768C42.3989 93.7969 49.5126 92.18 54.9117 95.5579L77.8005 110.368C83.1805 113.776 84.7974 120.89 81.4194 126.289Z" fill="url(#paint5_linear_111_975)"/>
<path id="Path_8" d="M75.6735 157.637C72.2346 163.067 65.0562 164.699 59.608 161.29L45.4302 150.952C40.001 147.513 38.3689 140.335 41.7776 134.887C45.2164 129.457 52.3948 127.825 57.8431 131.234L72.0208 141.575C77.4482 145.014 79.0801 152.19 75.6735 157.637Z" fill="url(#paint6_linear_111_975)"/>
<g id="Group" opacity="0.5">
<path id="Oval_5" d="M108.897 116.924C124.144 116.924 136.504 104.564 136.504 89.3178C136.504 74.0711 124.144 61.7112 108.897 61.7112C93.6504 61.7112 81.2905 74.0711 81.2905 89.3178C81.2905 104.564 93.6504 116.924 108.897 116.924Z" fill="url(#paint7_linear_111_975)"/>
</g>
<path id="Oval_6" d="M108.897 115.301C123.247 115.301 134.88 103.668 134.88 89.3178C134.88 74.9679 123.247 63.335 108.897 63.335C94.5472 63.335 82.9142 74.9679 82.9142 89.3178C82.9142 103.668 94.5472 115.301 108.897 115.301Z" fill="#69F0AE"/>
<path id="Path_9" d="M97.62 85.8493L107.362 94.7814L121.166 74.4832L126.04 78.544L107.362 102.903L93.5591 87.4761L97.62 85.8493Z" fill="white"/>
<path id="Path_10" d="M74.5285 156.867C71.3213 161.928 64.6291 163.449 59.5497 160.271L46.3265 150.645C41.2656 147.438 39.7448 140.746 42.9225 135.666C46.1297 130.606 52.8219 129.085 57.9014 132.262L71.1215 141.907C76.1722 145.112 77.6932 151.791 74.5285 156.867Z" fill="#BE7C5E"/>
<path id="Path_11" d="M80.161 125.476C76.9538 130.537 70.2615 132.058 65.1821 128.88L43.6469 114.945C38.586 111.737 37.0651 105.045 40.2428 99.9657C43.4501 94.9048 50.1423 93.384 55.2217 96.5617L76.757 110.497C81.8179 113.704 83.3387 120.396 80.161 125.476Z" fill="#BE7C5E"/>
<path id="Path_12" d="M87.3373 95.0883C83.9121 100.492 76.7663 102.115 71.3424 98.7225L42.3362 79.8362C36.9327 76.4109 35.3091 69.2652 38.702 63.8413C42.1272 58.4378 49.2729 56.8142 54.6968 60.2071L83.7031 79.0934C89.1066 82.5187 90.7302 89.6644 87.3373 95.0883Z" fill="url(#paint8_linear_111_975)"/>
<path id="Path_13" d="M85.7965 94.1061C82.5892 99.167 75.897 100.688 70.8176 97.5101L43.6499 79.8209C38.589 76.6137 37.0682 69.9215 40.2459 64.842C43.4531 59.7812 50.1453 58.2603 55.2248 61.438L82.3894 79.1272C87.4513 82.3334 88.9736 89.0259 85.7965 94.1061Z" fill="#BE7C5E"/>
</g>
</g>
</g>
</g>
<defs>
<linearGradient id="paint0_linear_111_975" x1="6361.3" y1="9010.18" x2="6361.3" y2="132.119" gradientUnits="userSpaceOnUse">
<stop stop-color="#808080" stop-opacity="0.25"/>
<stop offset="0.54" stop-color="#808080" stop-opacity="0.12"/>
<stop offset="1" stop-color="#808080" stop-opacity="0.1"/>
</linearGradient>
<linearGradient id="paint1_linear_111_975" x1="2912.52" y1="4606.09" x2="2912.52" y2="22.184" gradientUnits="userSpaceOnUse">
<stop stop-color="#808080" stop-opacity="0.25"/>
<stop offset="0.54" stop-color="#808080" stop-opacity="0.12"/>
<stop offset="1" stop-color="#808080" stop-opacity="0.1"/>
</linearGradient>
<linearGradient id="paint2_linear_111_975" x1="5007.67" y1="17862.6" x2="5007.67" y2="-0.306638" gradientUnits="userSpaceOnUse">
<stop stop-color="#808080" stop-opacity="0.25"/>
<stop offset="0.54" stop-color="#808080" stop-opacity="0.12"/>
<stop offset="1" stop-color="#808080" stop-opacity="0.1"/>
</linearGradient>
<linearGradient id="paint3_linear_111_975" x1="2088.53" y1="8586.74" x2="2088.53" y2="76.4007" gradientUnits="userSpaceOnUse">
<stop stop-color="#808080" stop-opacity="0.25"/>
<stop offset="0.54" stop-color="#808080" stop-opacity="0.12"/>
<stop offset="1" stop-color="#808080" stop-opacity="0.1"/>
</linearGradient>
<linearGradient id="paint4_linear_111_975" x1="4635.23" y1="2327.91" x2="4635.23" y2="209.996" gradientUnits="userSpaceOnUse">
<stop stop-color="#808080" stop-opacity="0.25"/>
<stop offset="0.54" stop-color="#808080" stop-opacity="0.12"/>
<stop offset="1" stop-color="#808080" stop-opacity="0.1"/>
</linearGradient>
<linearGradient id="paint5_linear_111_975" x1="2334.64" y1="3881.73" x2="2334.64" y2="94.0312" gradientUnits="userSpaceOnUse">
<stop stop-color="#808080" stop-opacity="0.25"/>
<stop offset="0.54" stop-color="#808080" stop-opacity="0.12"/>
<stop offset="1" stop-color="#808080" stop-opacity="0.1"/>
</linearGradient>
<linearGradient id="paint6_linear_111_975" x1="1912.96" y1="3491.1" x2="1912.96" y2="129.135" gradientUnits="userSpaceOnUse">
<stop stop-color="#808080" stop-opacity="0.25"/>
<stop offset="0.54" stop-color="#808080" stop-opacity="0.12"/>
<stop offset="1" stop-color="#808080" stop-opacity="0.1"/>
</linearGradient>
<linearGradient id="paint7_linear_111_975" x1="2841.95" y1="5583.03" x2="2841.95" y2="61.4041" gradientUnits="userSpaceOnUse">
<stop stop-color="#808080" stop-opacity="0.25"/>
<stop offset="0.54" stop-color="#808080" stop-opacity="0.12"/>
<stop offset="1" stop-color="#808080" stop-opacity="0.1"/>
</linearGradient>
<linearGradient id="paint8_linear_111_975" x1="2645.76" y1="4265.53" x2="2645.76" y2="59.4653" gradientUnits="userSpaceOnUse">
<stop stop-color="#808080" stop-opacity="0.25"/>
<stop offset="0.54" stop-color="#808080" stop-opacity="0.12"/>
<stop offset="1" stop-color="#808080" stop-opacity="0.1"/>
</linearGradient>
<clipPath id="clip0_111_975">
<rect width="223" height="233" fill="white"/>
</clipPath>
</defs>
</svg>
