<svg width="38" height="35" viewBox="0 0 38 35" fill="none" xmlns="http://www.w3.org/2000/svg">
<path id="Vector" d="M18.7 0C15.0662 0.00645548 11.5128 1.00083 8.47267 2.862C5.43254 4.72317 3.03685 7.37081 1.57744 10.4824C0.11802 13.594 -0.342145 17.0353 0.252991 20.3871C0.848127 23.7389 2.47288 26.8566 4.92934 29.3603C6.68379 31.1385 8.81312 32.5576 11.1832 33.5283C13.5532 34.4989 16.1126 35 18.7 35C21.2874 35 23.8468 34.4989 26.2168 33.5283C28.5869 32.5576 30.7162 31.1385 32.4707 29.3603C34.9271 26.8566 36.5519 23.7389 37.147 20.3871C37.7421 17.0353 37.282 13.594 35.8226 10.4824C34.3631 7.37081 31.9675 4.72317 28.9273 2.862C25.8872 1.00083 22.3338 0.00645548 18.7 0ZM18.7 31.5326C14.8189 31.5271 11.0913 30.1141 8.30175 27.591C9.14868 25.6632 10.5894 24.0143 12.4409 22.8539C14.2924 21.6935 16.471 21.0739 18.7 21.0739C20.929 21.0739 23.1076 21.6935 24.9591 22.8539C26.8106 24.0143 28.2513 25.6632 29.0982 27.591C26.3087 30.1141 22.5811 31.5271 18.7 31.5326ZM14.9529 14.0145C14.9529 13.3215 15.1726 12.6441 15.5844 12.068C15.9961 11.4918 16.5813 11.0427 17.266 10.7776C17.9507 10.5124 18.7042 10.443 19.431 10.5782C20.1579 10.7134 20.8256 11.0471 21.3496 11.5371C21.8737 12.027 22.2305 12.6513 22.3751 13.331C22.5197 14.0106 22.4455 14.7151 22.1619 15.3553C21.8783 15.9955 21.398 16.5427 20.7818 16.9276C20.1656 17.3126 19.4411 17.5181 18.7 17.5181C17.7062 17.5181 16.7531 17.149 16.0504 16.4919C15.3477 15.8349 14.9529 14.9437 14.9529 14.0145ZM31.6463 24.5253C29.9723 21.8482 27.3959 19.7657 24.3207 18.6042C25.2746 17.5928 25.8962 16.3455 26.1108 15.012C26.3254 13.6785 26.1239 12.3154 25.5305 11.0863C24.9371 9.85723 23.977 8.81434 22.7654 8.08279C21.5539 7.35125 20.1422 6.96213 18.7 6.96213C17.2578 6.96213 15.8461 7.35125 14.6346 8.08279C13.423 8.81434 12.4629 9.85723 11.8695 11.0863C11.2761 12.3154 11.0746 13.6785 11.2892 15.012C11.5038 16.3455 12.1254 17.5928 13.0793 18.6042C10.0041 19.7657 7.42768 21.8482 5.75371 24.5253C4.41963 22.4006 3.71475 19.982 3.71153 17.5181C3.71153 13.8012 5.29067 10.2366 8.10155 7.60837C10.9124 4.98014 14.7248 3.50362 18.7 3.50362C22.6752 3.50362 26.4876 4.98014 29.2985 7.60837C32.1093 10.2366 33.6885 13.8012 33.6885 17.5181C33.6852 19.982 32.9804 22.4006 31.6463 24.5253Z" fill="#EBEDF4"/>
</svg>
