<svg width="38" height="35" viewBox="0 0 38 35" fill="none" xmlns="http://www.w3.org/2000/svg">
<path id="Vector" d="M17.5581 23.2575C17.4777 23.3407 17.4027 23.4283 17.3337 23.52C17.2629 23.6175 17.2063 23.7235 17.1654 23.835C17.1115 23.9342 17.0737 24.0404 17.0532 24.15C17.044 24.2665 17.044 24.3835 17.0532 24.5C17.0469 24.7296 17.0981 24.9573 17.2028 25.165C17.2868 25.3822 17.4208 25.5794 17.5953 25.7427C17.7698 25.906 17.9805 26.0314 18.2126 26.11C18.4364 26.2026 18.6785 26.2504 18.9232 26.2504C19.1679 26.2504 19.41 26.2026 19.6338 26.11C19.8659 26.0314 20.0766 25.906 20.2511 25.7427C20.4256 25.5794 20.5596 25.3822 20.6436 25.165C20.7266 24.9522 20.7647 24.7264 20.7558 24.5C20.7572 24.2697 20.71 24.0414 20.617 23.8282C20.5239 23.6149 20.3868 23.421 20.2135 23.2575C20.0397 23.0935 19.8328 22.9633 19.605 22.8744C19.3771 22.7856 19.1327 22.7398 18.8858 22.7398C18.6389 22.7398 18.3945 22.7856 18.1666 22.8744C17.9388 22.9633 17.7319 23.0935 17.5581 23.2575ZM18.8858 0C15.1873 0 11.5718 1.02636 8.49663 2.94928C5.42144 4.87221 3.02461 7.60533 1.60925 10.803C0.193893 14.0007 -0.176429 17.5194 0.545115 20.9141C1.26666 24.3087 3.04766 27.4269 5.6629 29.8744C8.27814 32.3218 11.6102 33.9885 15.2376 34.6637C18.8651 35.339 22.625 34.9924 26.042 33.6679C29.459 32.3433 32.3795 30.1003 34.4343 27.2225C36.4891 24.3446 37.5858 20.9612 37.5858 17.5C37.5858 15.2019 37.1021 12.9262 36.1623 10.803C35.2226 8.67984 33.8451 6.75065 32.1087 5.12563C30.3722 3.50061 28.3108 2.21157 26.042 1.33211C23.7732 0.452651 21.3415 0 18.8858 0ZM18.8858 31.5C15.927 31.5 13.0346 30.6789 10.5745 29.1406C8.11431 27.6022 6.19685 25.4157 5.06456 22.8576C3.93227 20.2994 3.63602 17.4845 4.21325 14.7687C4.79049 12.053 6.21529 9.55844 8.30748 7.6005C10.3997 5.64257 13.0653 4.3092 15.9672 3.76901C18.8692 3.22881 21.8772 3.50606 24.6107 4.56569C27.3443 5.62531 29.6808 7.41973 31.3246 9.72201C32.9684 12.0243 33.8458 14.7311 33.8458 17.5C33.8458 21.213 32.2697 24.774 29.4641 27.3995C26.6586 30.025 22.8534 31.5 18.8858 31.5ZM18.8858 8.75C17.9004 8.74941 16.9323 8.99171 16.0788 9.45252C15.2252 9.91333 14.5165 10.5764 14.0238 11.375C13.8885 11.5742 13.7976 11.7969 13.7567 12.0298C13.7158 12.2627 13.7256 12.5009 13.7856 12.7302C13.8456 12.9594 13.9545 13.1749 14.1059 13.3638C14.2572 13.5526 14.4477 13.7108 14.6661 13.8289C14.8844 13.947 15.1261 14.0226 15.3764 14.0511C15.6268 14.0795 15.8807 14.0603 16.1229 13.9945C16.3652 13.9288 16.5907 13.8178 16.7859 13.6684C16.9811 13.519 17.142 13.3341 17.2589 13.125C17.4237 12.8579 17.6609 12.6364 17.9466 12.4827C18.2323 12.3291 18.5563 12.2488 18.8858 12.25C19.3818 12.25 19.8574 12.4344 20.2081 12.7626C20.5588 13.0907 20.7558 13.5359 20.7558 14C20.7558 14.4641 20.5588 14.9092 20.2081 15.2374C19.8574 15.5656 19.3818 15.75 18.8858 15.75C18.3898 15.75 17.9142 15.9344 17.5635 16.2626C17.2128 16.5907 17.0158 17.0359 17.0158 17.5V19.25C17.0158 19.7141 17.2128 20.1592 17.5635 20.4874C17.9142 20.8156 18.3898 21 18.8858 21C19.3818 21 19.8574 20.8156 20.2081 20.4874C20.5588 20.1592 20.7558 19.7141 20.7558 19.25V18.935C21.9926 18.515 23.0323 17.7016 23.6931 16.637C24.354 15.5724 24.594 14.3243 24.3713 13.1108C24.1485 11.8974 23.477 10.7958 22.4743 9.99865C21.4716 9.20152 20.2014 8.75955 18.8858 8.75Z" fill="#EBEDF4"/>
</svg>
