<svg width="20" height="16" viewBox="0 0 20 16" fill="none" xmlns="http://www.w3.org/2000/svg">
<g id="Right-Arrow 1" clip-path="url(#clip0_111_926)">
<g id="Clip path group">
<mask id="mask0_111_926" style="mask-type:luminance" maskUnits="userSpaceOnUse" x="0" y="0" width="20" height="16">
<g id="clip0">
<path id="Vector" d="M0.5 15.5H19.5V0.5H0.5V15.5Z" fill="white"/>
</g>
</mask>
<g mask="url(#mask0_111_926)">
<g id="Group">
<path id="Vector_2" d="M0.875 7.79492C0.875 7.90234 0.914101 7.99023 0.992201 8.06836L7.5938 14.709C7.7402 14.875 7.8477 14.9141 7.9551 14.9141C8.1699 14.9141 8.3359 14.748 8.3359 14.543C8.3359 14.4356 8.3066 14.3379 8.2285 14.2695L4.332 10.3633L1.998 8.10742L4.1367 8.16602H18.6387C18.8437 8.16602 19.0098 8.00977 19.0098 7.79492C19.0098 7.58008 18.8437 7.42383 18.6387 7.42383H4.1367L1.998 7.47266L4.332 5.2266L8.2285 1.3203C8.2969 1.252 8.3359 1.1445 8.3359 1.0371C8.3359 0.8418 8.1699 0.6758 7.9551 0.6758C7.8477 0.6758 7.7598 0.714801 7.6816 0.793001L0.992201 7.52148C0.914101 7.59961 0.875 7.6875 0.875 7.79492Z" fill="black"/>
</g>
</g>
</g>
</g>
<defs>
<clipPath id="clip0_111_926">
<rect width="19" height="15" fill="white" transform="matrix(-1 0 0 -1 19.5 15.5)"/>
</clipPath>
</defs>
</svg>
