<svg width="31" height="15" viewBox="0 0 31 15" fill="none" xmlns="http://www.w3.org/2000/svg">
<g id="Right-Arrow 1" clip-path="url(#clip0_111_955)">
<g id="Clip path group">
<mask id="mask0_111_955" style="mask-type:luminance" maskUnits="userSpaceOnUse" x="0" y="0" width="31" height="15">
<g id="clip0">
<path id="Vector" d="M0 15H31V0H0V15Z" fill="white"/>
</g>
</mask>
<g mask="url(#mask0_111_955)">
<g id="Group">
<path id="Vector_2" d="M0.611832 7.29492C0.611832 7.40234 0.675627 7.49023 0.803053 7.56836L11.5741 14.209C11.8129 14.375 11.9883 14.4141 12.1636 14.4141C12.514 14.4141 12.7849 14.248 12.7849 14.043C12.7849 13.9356 12.7371 13.8379 12.6096 13.7695L6.2522 9.86328L2.44409 7.60742L5.93355 7.66602H29.5947C29.9293 7.66602 30.2001 7.50977 30.2001 7.29492C30.2001 7.08008 29.9293 6.92383 29.5947 6.92383H5.93355L2.44409 6.97266L6.2522 4.7266L12.6096 0.820301C12.7212 0.752001 12.7849 0.6445 12.7849 0.5371C12.7849 0.3418 12.514 0.1758 12.1636 0.1758C11.9883 0.1758 11.8449 0.214801 11.7173 0.293001L0.803053 7.02148C0.675627 7.09961 0.611832 7.1875 0.611832 7.29492Z" fill="white"/>
</g>
</g>
</g>
</g>
<defs>
<clipPath id="clip0_111_955">
<rect width="31" height="15" fill="white" transform="matrix(-1 0 0 -1 31 15)"/>
</clipPath>
</defs>
</svg>
