<svg width="32" height="35" viewBox="0 0 32 35" fill="none" xmlns="http://www.w3.org/2000/svg">
<path id="Vector" d="M0.585693 17.5C0.585693 17.9641 0.787988 18.4092 1.14807 18.7374C1.50816 19.0656 1.99654 19.25 2.50578 19.25H17.0793L12.6631 23.2575C12.4831 23.4202 12.3402 23.6137 12.2428 23.827C12.1453 24.0402 12.0951 24.269 12.0951 24.5C12.0951 24.731 12.1453 24.9598 12.2428 25.173C12.3402 25.3863 12.4831 25.5798 12.6631 25.7425C12.8416 25.9065 13.0539 26.0367 13.2879 26.1256C13.5219 26.2144 13.7728 26.2601 14.0263 26.2601C14.2798 26.2601 14.5308 26.2144 14.7647 26.1256C14.9987 26.0367 15.2111 25.9065 15.3896 25.7425L23.0699 18.7425C23.2447 18.5761 23.3818 18.3798 23.4732 18.165C23.6652 17.7389 23.6652 17.2611 23.4732 16.835C23.3818 16.6202 23.2447 16.4239 23.0699 16.2575L15.3896 9.2575C15.2106 9.09433 14.998 8.9649 14.7641 8.8766C14.5302 8.78829 14.2795 8.74284 14.0263 8.74284C13.7731 8.74284 13.5224 8.78829 13.2885 8.8766C13.0546 8.9649 12.8421 9.09433 12.6631 9.2575C12.484 9.42067 12.342 9.61438 12.2451 9.82756C12.1482 10.0408 12.0984 10.2692 12.0984 10.5C12.0984 10.7308 12.1482 10.9592 12.2451 11.1724C12.342 11.3856 12.484 11.5793 12.6631 11.7425L17.0793 15.75H2.50578C1.99654 15.75 1.50816 15.9344 1.14807 16.2626C0.787988 16.5908 0.585693 17.0359 0.585693 17.5ZM25.5469 0H6.34596C4.81824 0 3.3531 0.553124 2.27284 1.53769C1.19258 2.52226 0.585693 3.85761 0.585693 5.25V10.5C0.585693 10.9641 0.787988 11.4092 1.14807 11.7374C1.50816 12.0656 1.99654 12.25 2.50578 12.25C3.01502 12.25 3.5034 12.0656 3.86349 11.7374C4.22358 11.4092 4.42587 10.9641 4.42587 10.5V5.25C4.42587 4.78587 4.62817 4.34075 4.98825 4.01256C5.34834 3.68437 5.83672 3.5 6.34596 3.5H25.5469C26.0561 3.5 26.5445 3.68437 26.9046 4.01256C27.2647 4.34075 27.4669 4.78587 27.4669 5.25V29.75C27.4669 30.2141 27.2647 30.6593 26.9046 30.9874C26.5445 31.3156 26.0561 31.5 25.5469 31.5H6.34596C5.83672 31.5 5.34834 31.3156 4.98825 30.9874C4.62817 30.6593 4.42587 30.2141 4.42587 29.75V24.5C4.42587 24.0359 4.22358 23.5908 3.86349 23.2626C3.5034 22.9344 3.01502 22.75 2.50578 22.75C1.99654 22.75 1.50816 22.9344 1.14807 23.2626C0.787988 23.5908 0.585693 24.0359 0.585693 24.5V29.75C0.585693 31.1424 1.19258 32.4777 2.27284 33.4623C3.3531 34.4469 4.81824 35 6.34596 35H25.5469C27.0746 35 28.5397 34.4469 29.62 33.4623C30.7002 32.4777 31.3071 31.1424 31.3071 29.75V5.25C31.3071 3.85761 30.7002 2.52226 29.62 1.53769C28.5397 0.553124 27.0746 0 25.5469 0Z" fill="#EBEDF4"/>
</svg>
