<svg width="32" height="44" viewBox="0 0 32 44" fill="none" xmlns="http://www.w3.org/2000/svg">
<g id="Vector 11">
<path d="M22.2286 7.153L13.6348 23.9593C12.5406 26.0991 10.3399 27.4455 7.93654 27.4455H6.9C3.36538 27.4455 0.5 24.5802 0.5 21.0455V18.8241C0.5 17.0947 1.19993 15.4388 2.44038 14.2337L15.9164 1.14165C16.67 0.409538 17.6793 0 18.7299 0C20.9599 0 22.7676 1.80773 22.7676 4.03767V4.91521C22.7676 5.69329 22.5829 6.46024 22.2286 7.153Z" fill="#152AB3" fill-opacity="0.99"/>
<path d="M31.5 23.3901V24.7415C31.5 26.4702 30.8007 28.1254 29.5612 29.3304L15.4662 43.0333C14.8286 43.6532 13.9743 44 13.085 44C11.1984 44 9.66901 42.4706 9.66901 40.584V39.4039C9.66901 38.7017 9.8299 38.0089 10.1393 37.3786L18.3906 20.5699C19.4663 18.3786 21.6947 16.9901 24.1357 16.9901H25.1C28.6346 16.9901 31.5 19.8555 31.5 23.3901Z" fill="#152AB3" fill-opacity="0.99"/>
</g>
</svg>
