<svg width="31" height="44" viewBox="0 0 31 44" fill="none" xmlns="http://www.w3.org/2000/svg">
<g id="Vector 10">
<path d="M21.7286 7.153L13.1348 23.9593C12.0406 26.0991 9.83986 27.4455 7.43654 27.4455H6.4C2.86538 27.4455 0 24.5802 0 21.0455V18.8241C0 17.0947 0.699929 15.4388 1.94038 14.2337L15.4164 1.14165C16.17 0.409538 17.1793 0 18.2299 0C20.4599 0 22.2676 1.80773 22.2676 4.03767V4.91521C22.2676 5.69329 22.0829 6.46024 21.7286 7.153Z" fill="white"/>
<path d="M31 23.3901V24.7415C31 26.4702 30.3007 28.1254 29.0612 29.3304L14.9662 43.0333C14.3286 43.6532 13.4743 44 12.585 44C10.6984 44 9.16901 42.4706 9.16901 40.584V39.4039C9.16901 38.7017 9.3299 38.0089 9.63932 37.3786L17.8906 20.5699C18.9663 18.3786 21.1947 16.9901 23.6357 16.9901H24.6C28.1346 16.9901 31 19.8555 31 23.3901Z" fill="white"/>
</g>
</svg>
