<svg width="35" height="30" viewBox="0 0 35 30" fill="none" xmlns="http://www.w3.org/2000/svg">
<path d="M33.25 18C32.7859 18 32.3408 18.158 32.0126 18.4393C31.6844 18.7206 31.5 19.1022 31.5 19.5V25.5C31.5 25.8978 31.3156 26.2794 30.9874 26.5607C30.6593 26.842 30.2141 27 29.75 27H5.25C4.78587 27 4.34075 26.842 4.01256 26.5607C3.68437 26.2794 3.5 25.8978 3.5 25.5V19.5C3.5 19.1022 3.31563 18.7206 2.98744 18.4393C2.65925 18.158 2.21413 18 1.75 18C1.28587 18 0.840752 18.158 0.512563 18.4393C0.184374 18.7206 0 19.1022 0 19.5V25.5C0 26.6935 0.553124 27.8381 1.53769 28.682C2.52226 29.5259 3.85761 30 5.25 30H29.75C31.1424 30 32.4777 29.5259 33.4623 28.682C34.4469 27.8381 35 26.6935 35 25.5V19.5C35 19.1022 34.8156 18.7206 34.4874 18.4393C34.1592 18.158 33.7141 18 33.25 18ZM16.2575 20.565C16.4239 20.7016 16.6202 20.8086 16.835 20.88C17.0445 20.9594 17.271 21.0003 17.5 21.0003C17.729 21.0003 17.9555 20.9594 18.165 20.88C18.3798 20.8086 18.5761 20.7016 18.7425 20.565L25.7425 14.565C26.072 14.2825 26.2572 13.8995 26.2572 13.5C26.2572 13.1005 26.072 12.7175 25.7425 12.435C25.413 12.1525 24.966 11.9939 24.5 11.9939C24.034 11.9939 23.587 12.1525 23.2575 12.435L19.25 15.885V1.5C19.25 1.10218 19.0656 0.720644 18.7374 0.43934C18.4092 0.158035 17.9641 0 17.5 0C17.0359 0 16.5908 0.158035 16.2626 0.43934C15.9344 0.720644 15.75 1.10218 15.75 1.5V15.885L11.7425 12.435C11.5793 12.2951 11.3856 12.1842 11.1724 12.1085C10.9592 12.0328 10.7308 11.9939 10.5 11.9939C10.2692 11.9939 10.0408 12.0328 9.82756 12.1085C9.61438 12.1842 9.42067 12.2951 9.2575 12.435C9.09433 12.5749 8.9649 12.7409 8.8766 12.9236C8.78829 13.1064 8.74284 13.3022 8.74284 13.5C8.74284 13.6978 8.78829 13.8936 8.8766 14.0764C8.9649 14.2591 9.09433 14.4251 9.2575 14.565L16.2575 20.565Z" fill="#EEEFF7"/>
</svg>
