<svg width="71" height="50" viewBox="0 0 71 50" fill="none" xmlns="http://www.w3.org/2000/svg">
<path d="M61.2286 7.153L52.6348 23.9593C51.5406 26.0991 49.3399 27.4455 46.9365 27.4455H45.9C42.3654 27.4455 39.5 24.5802 39.5 21.0455V18.8241C39.5 17.0947 40.1999 15.4388 41.4404 14.2337L54.9164 1.14165C55.67 0.409538 56.6793 0 57.7299 0C59.9599 0 61.7676 1.80773 61.7676 4.03767V4.91521C61.7676 5.69329 61.5829 6.46024 61.2286 7.153Z" fill="#152AB3" fill-opacity="0.99"/>
<path d="M70.5 23.3901V24.7415C70.5 26.4702 69.8007 28.1254 68.5612 29.3304L54.4662 43.0333C53.8286 43.6532 52.9743 44 52.085 44C50.1984 44 48.669 42.4706 48.669 40.584V39.4039C48.669 38.7017 48.8299 38.0089 49.1393 37.3786L57.3906 20.5699C58.4663 18.3786 60.6947 16.9901 63.1357 16.9901H64.1C67.6346 16.9901 70.5 19.8555 70.5 23.3901Z" fill="#152AB3" fill-opacity="0.99"/>
<path d="M23.7905 3.52C26.1005 3.52 28.1172 3.795 29.8405 4.345C31.6005 4.895 33.0672 5.70166 34.2405 6.765C35.4138 7.82833 36.2938 9.09333 36.8805 10.56C37.5038 11.99 37.8155 13.6217 37.8155 15.455C37.8155 17.215 37.5222 19.0117 36.9355 20.845C36.3855 22.6783 35.4872 24.3833 34.2405 25.96C32.9938 27.5 31.3438 28.765 29.2905 29.755C27.2738 30.7083 24.7988 31.185 21.8655 31.185H16.4205L14.8255 44H6.57549L11.5255 3.52H23.7905ZM22.4705 23.43C23.7905 23.43 24.8905 23.1917 25.7705 22.715C26.6505 22.2383 27.3655 21.6333 27.9155 20.9C28.4655 20.1667 28.8505 19.415 29.0705 18.645C29.3272 17.875 29.4555 17.1967 29.4555 16.61C29.4555 15.9867 29.3272 15.2533 29.0705 14.41C28.8138 13.5667 28.3005 12.8333 27.5305 12.21C26.7605 11.55 25.5872 11.22 24.0105 11.22H18.8405L17.3555 23.43H22.4705Z" fill="black"/>
</svg>
