<svg width="37" height="40" viewBox="0 0 37 40" fill="none" xmlns="http://www.w3.org/2000/svg">
<g id="uil-x">
<path id="Vector" d="M10.8669 31.8519C9.29678 31.8519 7.79097 31.3214 6.68073 30.3772C5.57049 29.433 4.94676 28.1524 4.94676 26.8171V13.3912C4.94676 12.0559 5.57049 10.7753 6.68073 9.83112C7.79097 8.88692 9.29678 8.35648 10.8669 8.35648C11.3903 8.35648 11.8922 8.17967 12.2623 7.86494C12.6324 7.5502 12.8403 7.12334 12.8403 6.67824C12.8403 6.23314 12.6324 5.80628 12.2623 5.49155C11.8922 5.17681 11.3903 5 10.8669 5C8.25003 5 5.74035 5.88407 3.88995 7.45773C2.03955 9.03138 1 11.1657 1 13.3912V26.8171C1 29.0426 2.03955 31.177 3.88995 32.7506C5.74035 34.3243 8.25003 35.2083 10.8669 35.2083C11.3903 35.2083 11.8922 35.0315 12.2623 34.7168C12.6324 34.4021 12.8403 33.9752 12.8403 33.5301C12.8403 33.085 12.6324 32.6581 12.2623 32.3434C11.8922 32.0287 11.3903 31.8519 10.8669 31.8519ZM26.0817 26.3304C26.2666 26.1744 26.4134 25.9888 26.5136 25.7843C26.6138 25.5798 26.6654 25.3604 26.6654 25.1389C26.6654 24.9173 26.6138 24.698 26.5136 24.4935C26.4134 24.289 26.2666 24.1034 26.0817 23.9473L21.5429 20.1042L26.0817 16.261C26.4532 15.945 26.662 15.5164 26.662 15.0694C26.662 14.6225 26.4532 14.1939 26.0817 13.8779C25.7101 13.5619 25.2061 13.3843 24.6806 13.3843C24.155 13.3843 23.6511 13.5619 23.2795 13.8779L18.7604 17.7378L14.2414 13.8779C13.8698 13.5619 13.3658 13.3843 12.8403 13.3843C12.3148 13.3843 11.8108 13.5619 11.4392 13.8779C11.0676 14.1939 10.8588 14.6225 10.8588 15.0694C10.8588 15.5164 11.0676 15.945 11.4392 16.261L15.978 20.1042L11.4392 23.9473C11.2542 24.1034 11.1074 24.289 11.0072 24.4935C10.907 24.698 10.8555 24.9173 10.8555 25.1389C10.8555 25.3604 10.907 25.5798 11.0072 25.7843C11.1074 25.9888 11.2542 26.1744 11.4392 26.3304C11.6226 26.4877 11.8409 26.6126 12.0814 26.6978C12.3218 26.783 12.5798 26.8269 12.8403 26.8269C13.1008 26.8269 13.3587 26.783 13.5992 26.6978C13.8397 26.6126 14.0579 26.4877 14.2414 26.3304L18.7604 22.4705L23.2795 26.3304C23.4629 26.4877 23.6812 26.6126 23.9216 26.6978C24.1621 26.783 24.42 26.8269 24.6806 26.8269C24.9411 26.8269 25.199 26.783 25.4395 26.6978C25.6799 26.6126 25.8982 26.4877 26.0817 26.3304ZM26.6539 5C26.1306 5 25.6286 5.17681 25.2585 5.49155C24.8885 5.80628 24.6806 6.23314 24.6806 6.67824C24.6806 7.12334 24.8885 7.5502 25.2585 7.86494C25.6286 8.17967 26.1306 8.35648 26.6539 8.35648C28.2241 8.35648 29.7299 8.88692 30.8401 9.83112C31.9503 10.7753 32.5741 12.0559 32.5741 13.3912V26.8171C32.5741 28.1524 31.9503 29.433 30.8401 30.3772C29.7299 31.3214 28.2241 31.8519 26.6539 31.8519C26.1306 31.8519 25.6286 32.0287 25.2585 32.3434C24.8885 32.6581 24.6806 33.085 24.6806 33.5301C24.6806 33.9752 24.8885 34.4021 25.2585 34.7168C25.6286 35.0315 26.1306 35.2083 26.6539 35.2083C29.2708 35.2083 31.7805 34.3243 33.6309 32.7506C35.4813 31.177 36.5208 29.0426 36.5208 26.8171V13.3912C36.5208 11.1657 35.4813 9.03138 33.6309 7.45773C31.7805 5.88407 29.2708 5 26.6539 5Z" fill="#E22016"/>
</g>
</svg>
